Coordinates
version=1
nRows=11
nColumns=40
inDegrees=yes

Units are S.I. units (second, meters, Newtons, ...)
If the header above contains a line with 'inDegrees', this indicates whether rotational values are in degrees (yes) or radians (no).

endheader
time	pelvis_tilt	pelvis_list	pelvis_rotation	pelvis_tx	pelvis_ty	pelvis_tz	hip_flexion_r	hip_adduction_r	hip_rotation_r	knee_angle_r	knee_angle_r_beta	ankle_angle_r	subtalar_angle_r	mtp_angle_r	hip_flexion_l	hip_adduction_l	hip_rotation_l	knee_angle_l	knee_angle_l_beta	ankle_angle_l	subtalar_angle_l	mtp_angle_l	lumbar_extension	lumbar_bending	lumbar_rotation	arm_flex_r	arm_add_r	arm_rot_r	elbow_flex_r	pro_sup_r	wrist_flex_r	wrist_dev_r	arm_flex_l	arm_add_l	arm_rot_l	elbow_flex_l	pro_sup_l	wrist_flex_l	wrist_dev_l
      2.05000000	      7.84134135	      4.70262645	      0.75797447	     -0.36986851	      0.97684712	     -0.75949855	     18.48758417	     -0.76304992	     -2.22495517	     43.75077996	      0.76359516	     10.59740221	      0.00000000	      0.00000000	     39.92856174	      4.88019440	      5.30593679	     10.80987167	      0.18866785	     -8.53023153	      0.00000000	      0.00000000	    -30.84378706	     -3.63050839	     -2.76444184	     89.47193495	    -13.42745688	     18.32419489	     46.52044864	     83.37093329	      0.00000000	      0.00000000	     89.83568129	    -11.34086289	     17.61683552	     46.87664744	     86.88502693	      0.00000000	      0.00000000
      2.05500000	      7.78900886	      4.68893175	      0.70369238	     -0.37040613	      0.97577415	     -0.75941171	     18.75823216	     -0.74432524	     -2.18886813	     44.08782107	      0.76947764	     10.69865263	      0.00000000	      0.00000000	     40.14751743	      4.83296026	      5.26265379	     10.85228306	      0.18940807	     -8.52405056	      0.00000000	      0.00000000	    -30.87767638	     -3.62941778	     -2.72293590	     89.50205428	    -13.38901999	     18.23001491	     46.55510460	     84.04477993	      0.00000000	      0.00000000	     89.83745162	    -11.36890320	     17.61192507	     46.95226185	     86.73616458	      0.00000000	      0.00000000
      2.06000000	      7.76998819	      4.68241713	      0.69002778	     -0.37095837	      0.97477703	     -0.75949369	     18.98348475	     -0.75902054	     -2.18512785	     44.42801721	      0.77541518	     10.82938424	      0.00000000	      0.00000000	     40.31256426	      4.82197325	      5.27461421	     10.84381481	      0.18926027	     -8.51227864	      0.00000000	      0.00000000	    -30.95654986	     -3.60568912	     -2.71736406	     89.52497426	    -13.38612665	     18.31582266	     46.68670005	     82.72236304	      0.00000000	      0.00000000	     89.83944584	    -11.34323752	     17.43715806	     47.02720555	     86.90188821	      0.00000000	      0.00000000
      2.06500000	      7.75027926	      4.65660945	      0.66926024	     -0.37152062	      0.97375512	     -0.75956381	     19.21210839	     -0.75897629	     -2.22065661	     44.75777628	      0.78117056	     10.93749938	      0.00000000	      0.00000000	     40.48872755	      4.79313329	      5.27406268	     10.86983624	      0.18971443	     -8.51597317	      0.00000000	      0.00000000	    -31.01836406	     -3.57229778	     -2.66221868	     89.54897693	    -13.37581548	     18.15798753	     46.68871723	     83.52891853	      0.00000000	      0.00000000	     89.84228911	    -11.23983333	     17.25618332	     47.02820692	     86.80326443	      0.00000000	      0.00000000
      2.07000000	      7.73129022	      4.64383118	      0.62607800	     -0.37205562	      0.97276179	     -0.75952121	     19.43231876	     -0.73645400	     -2.17613808	     45.06868222	      0.78659689	     11.05736890	      0.00000000	      0.00000000	     40.67917759	      4.75766642	      5.29443163	     10.94437804	      0.19101543	     -8.50029493	      0.00000000	      0.00000000	    -31.09397387	     -3.55840418	     -2.63916691	     89.56268447	    -13.35044364	     18.32975888	     46.82775167	     80.10639685	      0.00000000	      0.00000000	     89.84439505	    -11.18070335	     16.97861639	     47.03225993	     87.06738982	      0.00000000	      0.00000000
      2.07500000	      7.69184744	      4.61366204	      0.60067128	     -0.37263695	      0.97169512	     -0.75965929	     19.68503365	     -0.72611998	     -2.16513872	     45.40312867	      0.79243409	     11.15950893	      0.00000000	      0.00000000	     40.88651032	      4.71884863	      5.25858749	     10.96777664	      0.19142381	     -8.48192274	      0.00000000	      0.00000000	    -31.14071531	     -3.50970282	     -2.59229025	     89.58173080	    -13.35848370	     18.04130658	     46.88215266	     83.88711711	      0.00000000	      0.00000000	     89.84686222	    -11.23010846	     17.08067169	     47.14605976	     86.77241688	      0.00000000	      0.00000000
      2.08000000	      7.65163963	      4.60239950	      0.60839243	     -0.37317823	      0.97066219	     -0.75973887	     19.92222466	     -0.74676522	     -2.22496137	     45.70832815	      0.79776082	     11.25616844	      0.00000000	      0.00000000	     41.05298528	      4.71889573	      5.33060803	     10.93835921	      0.19091038	     -8.53530436	      0.00000000	      0.00000000	    -31.19733185	     -3.47516879	     -2.60983156	     89.60833858	    -13.37795202	     18.20051904	     46.99845445	     82.81344099	      0.00000000	      0.00000000	     89.84770349	    -11.28775356	     17.13491850	     47.31094201	     86.48586247	      0.00000000	      0.00000000
      2.08500000	      7.68607604	      4.53814885	      0.54420572	     -0.37374664	      0.96975764	     -0.75971107	     20.04885977	     -0.64918905	     -2.12655036	     45.93796347	      0.80176871	     11.43444276	      0.00000000	      0.00000000	     41.24523925	      4.61983699	      5.12459238	     11.11773447	      0.19404107	     -8.55158257	      0.00000000	      0.00000000	    -31.32419221	     -3.42814374	     -2.42849009	     89.60006702	    -13.35364466	     17.80263312	     47.19477253	     80.98185994	      0.00000000	      0.00000000	     89.85500273	    -11.05628874	     17.02173542	     47.16850643	     84.75417958	      0.00000000	      0.00000000
      2.09000000	      7.58888116	      4.55748806	      0.51334400	     -0.37425977	      0.96855955	     -0.75979040	     20.39449140	     -0.69503198	     -2.13150426	     46.34724295	      0.80891199	     11.50269455	      0.00000000	      0.00000000	     41.49243207	      4.61779688	      5.21670476	     11.13946440	      0.19442033	     -8.27376658	      0.00000000	      0.00000000	    -31.29863610	     -3.43858370	     -2.50100987	     89.63013904	    -13.32317095	     18.10705949	     47.15992397	     80.10077320	      0.00000000	      0.00000000	     89.85357351	    -11.13877046	     16.70088154	     47.27691161	     86.98670401	      0.00000000	      0.00000000
      2.09500000	      7.57428737	      4.56192643	      0.46935763	     -0.37480190	      0.96755806	     -0.75974750	     20.60678299	     -0.70577780	     -2.12112881	     46.65910609	      0.81435503	     11.60656339	      0.00000000	      0.00000000	     41.63370521	      4.59175626	      5.21284427	     11.10452653	      0.19381055	     -8.44392165	      0.00000000	      0.00000000	    -31.38045780	     -3.45753057	     -2.46733293	     89.64472271	    -13.29999484	     17.79376307	     47.17122657	     83.96857752	      0.00000000	      0.00000000	     89.85478504	    -11.12500147	     16.64187282	     47.38360005	     86.68931834	      0.00000000	      0.00000000
      2.10000000	      7.54781831	      4.55361684	      0.41465881	     -0.37528742	      0.96651566	     -0.75963173	     20.83011584	     -0.67587933	     -2.05975382	     46.96443956	      0.81968410	     11.73037214	      0.00000000	      0.00000000	     41.81927817	      4.53744663	      5.10271773	     11.13612605	      0.19436207	     -8.42258467	      0.00000000	      0.00000000	    -31.42745454	     -3.46203091	     -2.42245076	     89.65505674	    -13.25696381	     17.72212570	     47.22398687	     83.52714611	      0.00000000	      0.00000000	     89.85670862	    -11.07477842	     16.45003502	     47.39342688	     86.74441034	      0.00000000	      0.00000000
